<svg width="316" height="106" viewBox="0 0 316 106" fill="none" xmlns="http://www.w3.org/2000/svg">
<path d="M45.6166 47.0264L32.7178 47.4354L47.8516 48.5456L45.6166 47.0264Z" fill="#20419A"/>
<path d="M47.8509 48.5459L34.9375 49.101L50.086 50.1966L47.8509 48.5459Z" fill="#20419A"/>
<path d="M50.0867 50.1963L37.3193 50.5469L52.3217 51.7886L50.0867 50.1963Z" fill="#20419A"/>
<path d="M52.4525 51.7886L39.5391 52.2122L54.6875 53.4393L52.4525 51.7886Z" fill="#20419A"/>
<path d="M54.6869 53.439L41.7734 53.7896L56.9219 55.1043L54.6869 53.439Z" fill="#20419A"/>
<path d="M43.0309 54.9009L40.7959 67.7266L45.821 55.1054L43.0309 54.9009Z" fill="#20419A"/>
<path d="M45.822 55.105L43.6016 67.7262L48.6121 55.105H45.822Z" fill="#20419A"/>
<path d="M48.6101 55.105L46.3896 67.8723L51.2103 55.105H48.6101Z" fill="#20419A"/>
<path d="M51.328 55.1045L49.166 67.8718L53.9136 55.1045H51.328Z" fill="#20419A"/>
<path d="M54.1315 55.105L51.8965 67.8723L56.7025 55.3095L54.1315 55.105Z" fill="#20419A"/>
<path d="M20.505 55.1048L17.0137 67.39L22.74 53.4395L20.505 55.1048Z" fill="#20419A"/>
<path d="M22.7391 53.4398L19.1748 65.7396L25.1056 51.7891L22.7391 53.4398Z" fill="#20419A"/>
<path d="M25.1079 51.789L21.4121 64.0889L27.3429 50.1968L25.1079 51.789Z" fill="#20419A"/>
<path d="M27.3413 50.1966L23.6455 62.4234L29.5617 48.5459L27.3413 50.1966Z" fill="#20419A"/>
<path d="M29.5615 48.5457L26.0117 60.7579L31.8111 46.895L29.5615 48.5457Z" fill="#20419A"/>
<path d="M27.3428 59.8674L38.9853 65.8713L28.2339 57.311L27.3428 59.8674Z" fill="#20419A"/>
<path d="M28.2344 57.3108L39.8915 63.3146L29.1547 54.7544L28.2344 57.3108Z" fill="#20419A"/>
<path d="M29.1533 54.7542L40.7959 60.758L30.1174 52.2124L29.1533 54.7542Z" fill="#20419A"/>
<path d="M30.1162 52.2126L41.7734 57.9973L31.0365 49.6416L30.1162 52.2126Z" fill="#20419A"/>
<path d="M31.0361 49.6417L42.6787 55.441L31.9418 47.0269L31.0361 49.6417Z" fill="#20419A"/>
<path d="M20.0967 81.0632L30.8336 88.2211L19.4102 78.4922L20.0967 81.0632Z" fill="#20419A"/>
<path d="M19.3807 78.4919L30.1176 85.6059L18.6211 75.731L19.3807 78.4919Z" fill="#20419A"/>
<path d="M18.6205 75.7312L29.372 83.0498L17.7148 73.1895L18.6205 75.7312Z" fill="#20419A"/>
<path d="M17.7149 73.1892L28.4517 80.3763L17.0137 70.6328L17.7149 73.1892Z" fill="#20419A"/>
<path d="M17.0139 70.633L27.5316 77.8055L16.0352 67.8721L17.0139 70.633Z" fill="#20419A"/>
<path d="M27.123 76.1401L36.5451 66.981L24.9756 74.504L27.123 76.1401Z" fill="#20419A"/>
<path d="M24.9753 74.5038L34.3828 65.3154L22.7402 72.8385L24.9753 74.5038Z" fill="#20419A"/>
<path d="M22.7414 72.8385L32.149 63.7231L20.7109 71.1878L22.7414 72.8385Z" fill="#20419A"/>
<path d="M20.5042 71.1876L29.9263 62.0723L18.4883 69.5223L20.5042 71.1876Z" fill="#20419A"/>
<path d="M18.4889 69.5226L27.6773 60.4072L16.2539 67.8719L18.4889 69.5226Z" fill="#20419A"/>
<path d="M45.6163 89.2727L55.798 81.6035L42.8262 89.2727H45.6163Z" fill="#20419A"/>
<path d="M42.6807 89.2732L53.0086 81.604L39.8906 89.2732H42.6807Z" fill="#20419A"/>
<path d="M39.8898 89.2727L50.2176 81.6035L37.1143 89.2727H39.8898Z" fill="#20419A"/>
<path d="M37.1145 89.2727L47.2962 81.6035L34.3828 89.2727H37.1145Z" fill="#20419A"/>
<path d="M34.3829 89.2727L44.5062 81.6035L31.5928 89.2727H34.3829Z" fill="#20419A"/>
<path d="M42.826 81.4719L37.1143 69.9463L40.664 82.9181L42.826 81.4719Z" fill="#20419A"/>
<path d="M40.6633 82.9177L34.7324 71.3921L38.4282 84.5831L40.6633 82.9177Z" fill="#20419A"/>
<path d="M38.4289 84.5837L32.498 73.0435L36.1939 86.0153L38.4289 84.5837Z" fill="#20419A"/>
<path d="M36.1945 86.015L30.2637 74.5039L33.828 87.6803L36.1945 86.015Z" fill="#20419A"/>
<path d="M33.8273 87.6804L27.8965 76.1401L31.5923 89.1412L33.8273 87.6804Z" fill="#20419A"/>
<path d="M61.1728 68.076L56.9219 56.1997L60.2671 70.8369L61.1728 68.076Z" fill="#20419A"/>
<path d="M60.2675 70.8376L56.0166 58.7715L59.5079 73.394L60.2675 70.8376Z" fill="#20419A"/>
<path d="M59.5091 73.3933L55.0391 61.3125L58.5888 75.935L59.5091 73.3933Z" fill="#20419A"/>
<path d="M58.5892 75.9359L54.1338 64.0889L57.6105 78.7114L58.5892 75.9359Z" fill="#20419A"/>
<path d="M57.6093 78.7111L53.3584 66.6304L56.9227 81.2529L57.6093 78.7111Z" fill="#20419A"/>
<path d="M52.6584 68.0762L39.6865 70.0775L53.3596 70.8371L52.6584 68.0762Z" fill="#20419A"/>
<path d="M53.3574 70.8374L40.6631 72.6342L54.3361 73.3938L53.3574 70.8374Z" fill="#20419A"/>
<path d="M54.3361 73.3936L41.3643 75.3948L55.0373 75.9353L54.3361 73.3936Z" fill="#20419A"/>
<path d="M55.0384 75.9355L42.125 77.9368L56.0172 78.7111L55.0384 75.9355Z" fill="#20419A"/>
<path d="M56.0167 78.7109L43.0303 80.5077L56.7033 81.2527L56.0167 78.7109Z" fill="#20419A"/>
<path d="M61.3043 43.9155L84.2681 5H38.2092L9.97198 53.1039C7.18186 57.8661 5.85254 62.9789 5.7795 68.0186C5.63342 84.584 19.102 100.39 38.2092 100.244C45.4693 100.244 51.7507 98.111 56.922 94.5905C70.2444 85.8257 75.5471 67.8872 66.6947 52.8994L61.319 43.9301L61.3043 43.9155ZM56.922 11.9534H71.5007L57.068 36.8015L56.922 36.597L42.3432 11.9534H56.922ZM56.922 85.1245C52.671 89.8137 46.3896 93.1297 38.2092 93.3342C17.1445 92.9106 7.51784 71.3931 16.4433 56.4053L38.2092 19.418L56.922 51.1026L60.0627 56.4199C65.5699 65.7398 63.9046 77.3969 56.922 85.1391" fill="#20419A"/>
<path fill-rule="evenodd" clip-rule="evenodd" d="M240.575 52.6365V48.3856H243.979L240.575 39.1972V33.2664H243.234L253.269 58.3044H247.791L245.615 52.6219H240.575V52.6365ZM255.782 58.319V33.281H260.866V58.319H255.782ZM265.715 58.319V33.281H270.653L280.922 49.9778V33.281H285.611V58.319H280.528L270.448 41.9727V58.319H265.715ZM289.672 50.1677L294.595 49.6711C294.902 51.351 295.486 52.5342 296.377 53.3231C297.269 54.1119 298.496 54.4625 300.029 54.4625C301.666 54.4625 302.893 54.1119 303.725 53.4253C304.558 52.7241 304.952 51.9353 304.952 51.0588C304.952 50.4161 304.748 49.9194 304.412 49.525C304.061 49.0868 303.477 48.7362 302.586 48.444C302.045 48.2541 300.658 47.8451 298.583 47.363C295.852 46.6764 293.938 45.8292 292.842 44.8943C291.308 43.5065 290.534 41.8266 290.534 39.8545C290.534 38.569 290.929 37.3858 291.615 36.2464C292.36 35.1654 293.397 34.3181 294.785 33.7338C296.115 33.1349 297.751 32.8427 299.679 32.8427C302.834 32.8427 305.201 33.5293 306.793 34.9171C308.371 36.3048 309.218 38.1308 309.32 40.4535L304.237 40.658C304.032 39.3725 303.594 38.4376 302.849 37.8971C302.162 37.3566 301.067 37.0644 299.635 37.0644C298.203 37.0644 297.035 37.3566 296.188 37.9555C295.691 38.3499 295.399 38.8904 295.399 39.5332C295.399 40.1321 295.647 40.6142 296.144 41.0086C296.786 41.5491 298.364 42.148 300.789 42.6885C303.258 43.2874 305.098 43.8717 306.282 44.5145C307.465 45.1134 308.356 46.0045 309.043 47.0416C309.744 48.1226 310.036 49.4666 310.036 51.0442C310.036 52.4758 309.641 53.8051 308.853 55.0906C308.064 56.3323 306.924 57.2672 305.493 57.8661C304.017 58.5089 302.191 58.801 300.015 58.801C296.845 58.801 294.435 58.056 292.755 56.5806C291.031 55.1491 290.038 53.0309 289.702 50.2116L289.672 50.1677ZM240.575 33.281V39.2118L240.517 39.1095L237.113 48.4002H240.575V52.6511H235.579L233.505 58.3336H228.188L237.916 33.2956H240.59L240.575 33.281ZM191.273 58.7134V54.4187C193.304 54.4187 194.925 53.6736 196.255 52.2421C197.54 50.7667 198.183 48.5901 198.183 45.7269C198.183 42.8638 197.54 40.6872 196.313 39.2994C195.027 37.8679 193.348 37.1667 191.273 37.1667V32.8281C194.925 32.8281 197.891 33.9675 200.067 36.2902C202.288 38.5544 203.427 41.7244 203.427 45.8146C203.427 49.9048 202.302 53.0309 200.126 55.2951C197.905 57.5594 194.984 58.6988 191.332 58.6988H191.273V58.7134ZM206.086 50.1677L210.979 49.6711C211.286 51.351 211.87 52.5342 212.805 53.3231C213.696 54.1119 214.923 54.4625 216.457 54.4625C218.079 54.4625 219.32 54.1119 220.109 53.4253C220.957 52.7241 221.395 51.9353 221.395 51.0588C221.395 50.4161 221.205 49.9194 220.854 49.525C220.504 49.0868 219.919 48.7362 219.028 48.444C218.429 48.2541 217.1 47.8451 214.982 47.363C212.265 46.6764 210.38 45.8292 209.299 44.8943C207.766 43.5065 206.977 41.8266 206.977 39.8545C206.977 38.569 207.327 37.3858 208.072 36.2464C208.817 35.1654 209.855 34.3181 211.184 33.7338C212.572 33.1349 214.193 32.8427 216.121 32.8427C219.291 32.8427 221.658 33.5293 223.235 34.9171C224.813 36.3048 225.646 38.1308 225.704 40.4535L220.664 40.658C220.46 39.3725 219.978 38.4376 219.291 37.8971C218.546 37.3566 217.509 37.0644 216.078 37.0644C214.646 37.0644 213.463 37.3566 212.615 37.9555C212.075 38.3499 211.827 38.8904 211.827 39.5332C211.827 40.1321 212.075 40.6142 212.572 41.0086C213.214 41.5491 214.748 42.148 217.217 42.6885C219.686 43.2874 221.512 43.8717 222.695 44.5145C223.878 45.1134 224.769 46.0045 225.47 47.0416C226.113 48.1226 226.449 49.4666 226.449 51.0442C226.449 52.4758 226.055 53.8051 225.266 55.0906C224.477 56.3323 223.338 57.2672 221.862 57.8661C220.431 58.5089 218.605 58.801 216.428 58.801C213.273 58.801 210.848 58.056 209.124 56.5806C207.444 55.1491 206.407 53.0309 206.1 50.2116L206.086 50.1677ZM191.273 32.8281V37.1667C189.199 37.1667 187.519 37.8533 186.233 39.2994C184.948 40.731 184.305 42.9076 184.305 45.7708C184.305 48.6339 184.992 50.7667 186.277 52.2421C187.607 53.6736 189.243 54.4187 191.273 54.4187V58.7134C187.577 58.7134 184.597 57.574 182.435 55.3536C180.215 53.0309 179.134 49.9194 179.134 45.9168C179.134 43.4043 179.528 41.2277 180.259 39.504C180.858 38.2623 181.603 37.079 182.581 36.1003C183.575 35.0631 184.656 34.3181 185.839 33.8215C187.373 33.1787 189.199 32.8427 191.229 32.8427H191.288L191.273 32.8281ZM165.037 49.1744V43.8425C166.673 43.7841 167.754 43.6964 168.251 43.5503C168.85 43.3458 169.288 43.0099 169.639 42.5132C169.989 41.9727 170.179 41.3738 170.179 40.6434C170.179 39.7523 169.946 39.1095 169.493 38.569C169.055 38.0724 168.412 37.7364 167.565 37.5757C167.272 37.5173 166.425 37.5173 165.052 37.5173V33.2664H165.549C168.222 33.2664 170.15 33.4709 171.377 33.9529C172.604 34.4058 173.539 35.1946 174.284 36.3194C175.029 37.4588 175.38 38.7882 175.38 40.2782C175.38 42.148 174.839 43.6818 173.744 44.9235C172.619 46.1506 170.983 46.9394 168.762 47.2462C169.843 47.8889 170.793 48.5755 171.479 49.3643C172.224 50.1093 173.159 51.4825 174.343 53.4107L177.41 58.3044H171.392L167.74 52.8264C166.454 50.942 165.563 49.7149 165.067 49.1744H165.037ZM96.3799 33.2664C98.7026 33.3102 100.236 33.4124 100.967 33.6023C102.442 33.9968 103.64 34.844 104.619 36.0711C105.554 37.3566 106.05 38.9927 106.05 40.9647C106.05 42.4986 105.758 43.7841 105.218 44.8212C104.677 45.9022 103.932 46.6911 103.1 47.29C102.252 47.8889 101.361 48.2833 100.485 48.4732C99.4914 48.6631 98.1037 48.8238 96.3799 48.8238V44.5729C97.4609 44.5145 98.2644 44.3684 98.7026 44.2223C99.3454 43.9302 99.8858 43.5357 100.28 42.9952C100.675 42.3963 100.821 41.7536 100.821 41.0232C100.821 40.1321 100.587 39.3871 100.032 38.7443C99.4768 38.2038 98.8487 37.8094 98.0014 37.6634C97.6508 37.6195 97.1103 37.5611 96.3653 37.5173V33.2664H96.3799ZM165.037 33.2664V37.5173H159.954V43.8425H165.037V49.1744C164.541 48.6777 164.044 48.3418 163.503 48.1372C162.963 47.9327 162.116 47.8451 160.991 47.8451H159.954V58.319H154.87V33.281H165.052L165.037 33.2664ZM110.199 58.3044V33.281H128.78V37.5319H115.239V43.0683H127.831V47.2608H115.239V54.0827H129.262V58.3336H110.199V58.3044ZM139.196 58.3044V37.5027H131.731V33.2518H151.583V37.5027H144.236V58.3044H139.196ZM86.8848 58.3044V33.281H96.3653V37.5319H91.9245V44.6021H96.3653V48.853C96.0147 48.8969 95.6203 48.8969 95.2259 48.8969H91.9245V58.3336H86.8848V58.3044Z" fill="#20419A"/>
</svg>
