<svg width="102" height="118" viewBox="0 0 102 118" fill="none" xmlns="http://www.w3.org/2000/svg">
<path d="M32.5327 100.922C32.1193 100.64 31.781 100.508 31.3675 100.508C31.0293 100.433 30.6722 100.433 30.3339 100.64C30.0708 100.771 29.8641 100.978 29.6385 101.241C29.3754 101.655 29.3754 102.125 29.507 102.594C29.6385 102.933 29.9204 103.403 30.3903 103.891C30.8037 104.229 31.0668 104.493 31.142 104.643C31.2736 104.85 31.3487 104.981 31.4239 105.113C31.4239 105.244 31.4239 105.395 31.2736 105.526C31.1984 105.733 31.0105 105.808 30.7474 105.864C30.4842 105.921 30.1084 105.789 29.7701 105.601C29.4318 105.413 29.2251 105.207 29.1687 104.925C29.0935 104.587 29.0935 104.248 29.2251 103.91L28.1351 103.365C27.7968 103.985 27.7968 104.587 27.9283 105.132C28.1351 105.677 28.5485 106.165 29.2251 106.56C29.7137 106.823 30.1084 106.973 30.5406 107.03C30.9729 107.086 31.2924 107.03 31.6494 106.898C31.9877 106.691 32.2696 106.485 32.4012 106.165C32.6079 105.827 32.7395 105.47 32.7395 105.225C32.7395 104.887 32.5891 104.605 32.4576 104.267C32.2508 103.985 31.9689 103.647 31.4991 103.177C31.0105 102.764 30.8037 102.425 30.7474 102.237C30.6722 102.106 30.6722 101.974 30.7474 101.824C30.8037 101.692 30.9353 101.617 31.142 101.617C31.3487 101.542 31.687 101.617 31.9689 101.824C32.3072 102.031 32.5139 102.237 32.5891 102.444C32.6643 102.651 32.6643 102.933 32.5139 103.196L33.604 103.816C33.8671 103.346 33.9423 102.876 33.8107 102.331C33.604 101.843 33.1905 101.392 32.5139 100.978" fill="#20419A"/>
<path d="M8.42042 63.5038H9.32251H10.281V64.1052C10.2058 64.575 10.2058 64.9133 10.2058 65.0636C10.1306 65.2703 10.0555 65.4019 9.86752 65.5335C9.73596 65.665 9.60441 65.7402 9.32251 65.7402C9.11578 65.7402 8.98422 65.665 8.83388 65.6086C8.68353 65.4771 8.55197 65.3455 8.55197 65.1952C8.4768 64.9884 8.42042 64.6502 8.42042 64.1803V63.5038ZM7.38678 64.3119C7.33039 64.8569 7.38678 65.3455 7.46195 65.6086C7.46195 65.8154 7.5935 66.0785 7.72506 66.2852C7.85661 66.4919 8.06334 66.6799 8.34524 66.8302C8.62715 66.9806 8.89026 67.0181 9.30371 67.0181C9.84872 67.0181 10.187 66.9618 10.5253 66.6799C10.8636 66.4919 11.0703 66.1349 11.1455 65.7966C11.2206 65.5898 11.2958 65.0636 11.2958 64.2931L11.371 62.2634L9.32251 62.207L5 62.1318V63.4286L7.40557 63.485L7.38678 64.3119Z" fill="#20419A"/>
<path d="M46.5908 111.953L47.8876 112.085L48.6393 105.902L47.3989 105.77L46.5908 111.953Z" fill="#20419A"/>
<path d="M56.4374 105.921L56.8508 109.999L53.9003 106.146L52.6035 106.278L53.2049 112.442L54.3701 112.31L54.0318 108.251L56.9072 112.123L58.204 111.991L57.5838 105.827L56.4374 105.921Z" fill="#20419A"/>
<path d="M67.8085 107.894C67.7521 107.556 67.5454 107.293 67.3387 107.086C67.0568 106.879 66.7936 106.748 66.4366 106.691C66.1547 106.635 65.6848 106.635 64.9895 106.635C64.3881 106.635 63.9746 106.635 63.7679 106.56C63.6175 106.485 63.486 106.353 63.486 106.222C63.4296 106.071 63.486 105.94 63.5612 105.808C63.6927 105.601 63.9746 105.47 64.3129 105.338C64.67 105.263 64.9331 105.263 65.215 105.338C65.4217 105.414 65.5533 105.62 65.7036 105.883L66.944 105.47C66.7185 104.925 66.4554 104.587 65.9667 104.324C65.4969 104.117 64.8015 104.117 64.0498 104.324C63.58 104.455 63.2229 104.662 62.9598 104.869C62.6215 105.132 62.4711 105.414 62.3396 105.752C62.2644 106.015 62.2644 106.353 62.3396 106.635C62.4711 107.105 62.753 107.443 63.2229 107.65C63.5612 107.8 64.1062 107.857 64.8015 107.857C65.3465 107.857 65.7036 107.8 65.8164 107.857C66.0983 107.857 66.2486 107.857 66.3802 107.988C66.5117 108.045 66.5869 108.12 66.5869 108.251C66.6621 108.514 66.6621 108.721 66.4554 108.928C66.3238 109.191 66.0419 109.341 65.7036 109.473C65.2902 109.529 64.9519 109.529 64.67 109.398C64.3881 109.266 64.1813 109.059 63.9934 108.646L62.8282 109.135C63.1101 109.736 63.5048 110.206 64.0498 110.488C64.5384 110.695 65.1398 110.695 65.9667 110.488C66.4554 110.356 66.944 110.149 67.2071 109.868C67.5454 109.604 67.7521 109.341 67.8085 108.984C67.9588 108.571 67.9588 108.233 67.8085 107.894Z" fill="#20419A"/>
<path d="M39.3918 107.97L38.5649 107.763L39.3918 106.673L40.0871 105.79L40.2939 108.233L39.3918 107.97ZM39.7864 104.249L39.3918 104.794L35.6895 109.53L36.9862 109.868L37.9447 108.646L39.3918 109.041L40.3502 109.323L40.4818 110.864L41.8537 111.202L41.102 104.568L39.7864 104.249Z" fill="#20419A"/>
<path d="M14.602 83.8382L15.5417 83.3683L13.4932 78.8203L12.5347 79.2902L13.2865 81.0004L9.32106 82.6918L8.49414 83.1052L9.03915 84.2516L9.30226 84.1201L13.8315 82.1468L14.602 83.8382Z" fill="#20419A"/>
<path d="M8.9829 75.983L9.32118 75.9078L10.0729 75.8326L9.52791 72.7317L10.8998 72.4498L11.4448 75.7762L12.5349 75.6259L11.708 71.0215L9.32118 71.4161L5.4873 72.0927L6.29543 76.8287L7.40424 76.6407L6.78406 73.1827L8.41909 72.9196L8.9829 75.983Z" fill="#20419A"/>
<path d="M18.0808 90.8294C17.9493 90.9609 17.7238 90.9609 17.5922 90.9609C17.4607 90.9609 17.3291 90.9609 17.1788 90.8294C17.0472 90.7542 16.7653 90.4159 16.4082 89.9461L15.8632 89.1943L17.1788 88.311H17.2539L17.7989 89.0628C18.0808 89.5326 18.2688 89.7393 18.344 89.8709C18.4191 90.0776 18.4191 90.2092 18.4191 90.4159C18.344 90.5475 18.2312 90.679 18.0808 90.8294ZM19.5843 90.8858C19.7159 90.6226 19.7159 90.3595 19.6595 90.1528C19.6595 90.0776 19.5843 90.0776 19.5843 90.0776C19.5092 89.7393 19.3212 89.3259 18.889 88.7809L17.3855 86.6196L17.1788 86.7512L12.1797 90.2092L12.9314 91.2804L15.0739 89.7393L15.2806 90.0025C15.4122 90.2092 15.5437 90.3971 15.5437 90.5475C15.6189 90.679 15.6189 90.8106 15.5437 91.0173C15.5437 91.1489 15.4122 91.4871 15.2054 92.0322L14.6041 93.592L15.4873 94.8136L16.0324 93.5356C16.2391 92.9906 16.3706 92.5772 16.427 92.3141C16.5022 92.1073 16.5022 91.8442 16.5022 91.5059C16.7089 91.7127 16.9156 91.9194 17.1788 92.051C17.3103 92.1261 17.517 92.1825 17.6674 92.1825C18.0808 92.2577 18.4755 92.1073 18.9078 91.8442C19.1897 91.6375 19.4528 91.3744 19.6031 91.0361L19.5843 90.8858Z" fill="#20419A"/>
<path d="M24.1877 99.0981C23.699 99.6431 23.2856 99.9062 22.8157 99.9814C22.8157 100.057 22.7406 100.057 22.6842 100.057C22.1955 100.132 21.8009 99.9814 21.3686 99.6431C21.0303 99.3048 20.8236 98.8914 20.8236 98.4215C20.8236 97.8765 21.0303 97.4067 21.519 96.8617C21.9324 96.3167 22.4023 96.0535 22.8157 95.9784C22.8909 95.9784 22.8909 95.9784 22.9661 95.9032C23.4547 95.9032 23.8494 96.0535 24.2628 96.373C24.6763 96.6925 24.9018 97.1248 24.9018 97.5946C24.9018 98.0645 24.6763 98.5531 24.2064 99.0981M24.9582 95.5649C24.6199 95.2266 24.2064 94.9635 23.793 94.832C23.5299 94.7568 23.1728 94.7004 22.8345 94.7568C22.4211 94.7568 22.0828 94.832 21.8197 95.0387C21.331 95.2266 20.9176 95.5649 20.5229 96.0535C20.0343 96.5046 19.7712 97.0684 19.6396 97.5946C19.6396 97.8577 19.5645 98.0645 19.5645 98.3464C19.6396 98.4779 19.6396 98.6095 19.6396 98.8162C19.7712 99.3612 20.1846 99.9626 20.7296 100.432C21.425 100.977 22.1016 101.241 22.8533 101.241H23.0037C23.7554 101.184 24.5071 100.714 25.2025 99.9626C25.8979 99.2109 26.161 98.4027 26.161 97.6698C26.0858 96.8429 25.7663 96.1099 24.9958 95.5649" fill="#20419A"/>
<path d="M33.3035 54.7466L29.8643 66.906L35.4459 53.0928L33.3035 54.7466Z" fill="#20419A"/>
<path d="M57.9583 46.7598L45.2539 47.098L60.1572 48.1693L57.9583 46.7598Z" fill="#20419A"/>
<path d="M60.1595 48.1875L47.4551 48.7325L62.3019 49.8601L60.1595 48.1875Z" fill="#20419A"/>
<path d="M62.3199 49.8413L49.8223 50.1796L64.5188 51.4576L62.3199 49.8413Z" fill="#20419A"/>
<path d="M64.5186 51.4575L51.833 51.7958L66.7363 53.0926L64.5186 51.4575Z" fill="#20419A"/>
<path d="M66.7161 53.0928L54.0117 53.4874L68.8586 54.7466L66.7161 53.0928Z" fill="#20419A"/>
<path d="M55.7975 54.5581L53.5986 67.2437L58.4849 54.746L55.7975 54.5581Z" fill="#20419A"/>
<path d="M58.504 54.7466L56.3428 67.2443L61.2479 54.7466H58.504Z" fill="#20419A"/>
<path d="M61.2291 54.7461L59.0303 67.4317L63.785 54.7461H61.2291Z" fill="#20419A"/>
<path d="M63.7862 54.7461L61.625 67.4317L66.3234 54.7461H63.7862Z" fill="#20419A"/>
<path d="M66.3404 54.7466L64.1416 67.4322L68.8964 54.8969L66.3404 54.7466Z" fill="#20419A"/>
<path d="M35.4441 53.0926L32.0049 65.2332L37.7933 51.4575L35.4441 53.0926Z" fill="#20419A"/>
<path d="M37.8137 51.4576L34.1865 63.617L40.0313 49.8413L37.8137 51.4576Z" fill="#20419A"/>
<path d="M40.01 49.8411L36.3828 62.0005L42.1712 48.1685L40.01 49.8411Z" fill="#20419A"/>
<path d="M42.1726 48.1875L38.7334 60.3469L44.3714 46.5713L42.1726 48.1875Z" fill="#20419A"/>
<path d="M40.0117 59.4451L51.4382 65.4214L40.895 56.8892L40.0117 59.4451Z" fill="#20419A"/>
<path d="M40.8945 56.9077L52.3586 62.8841L41.8154 54.3706L40.8945 56.9077Z" fill="#20419A"/>
<path d="M41.8164 54.3513L53.2429 60.3277L42.6997 51.7954L41.8164 54.3513Z" fill="#20419A"/>
<path d="M42.6973 51.7959L54.1613 57.6407L43.6181 49.2964L42.6973 51.7959Z" fill="#20419A"/>
<path d="M43.6396 49.2964L55.0661 55.0848L44.5229 46.7593L43.6396 49.2964Z" fill="#20419A"/>
<path d="M32.9449 80.4742L43.488 87.5405L32.2119 77.9746L32.9449 80.4742Z" fill="#20419A"/>
<path d="M32.2117 77.9753L42.6985 84.9853L31.46 75.2314L32.2117 77.9753Z" fill="#20419A"/>
<path d="M31.4804 75.2312L42.0236 82.4291L30.5596 72.6753L31.4804 75.2312Z" fill="#20419A"/>
<path d="M30.5574 72.6941L41.1006 79.7981L29.8809 70.1382L30.5574 72.6941Z" fill="#20419A"/>
<path d="M29.8635 70.1389L40.1999 77.2428L28.9238 67.4326L29.8635 70.1389Z" fill="#20419A"/>
<path d="M39.6171 75.5692L48.8823 66.5107L37.4746 73.953L39.6171 75.5692Z" fill="#20419A"/>
<path d="M37.4764 73.9535L46.7228 64.895L35.2588 72.3373L37.4764 73.9535Z" fill="#20419A"/>
<path d="M35.2573 72.3373L44.5224 63.2788L33.3027 70.721L35.2573 72.3373Z" fill="#20419A"/>
<path d="M33.3009 70.7208L42.5661 61.606L31.29 69.067L33.3009 70.7208Z" fill="#20419A"/>
<path d="M31.2919 69.0673L40.3691 60.0088L29.1494 67.451L31.2919 69.0673Z" fill="#20419A"/>
<path d="M57.7531 88.6121L67.7513 81.0571L55.0469 88.6121H57.7531Z" fill="#20419A"/>
<path d="M55.0644 88.6116L65.2693 81.0566L52.377 88.6116H55.0644Z" fill="#20419A"/>
<path d="M52.3601 88.6116L62.5086 81.0566L49.6162 88.6116H52.3601Z" fill="#20419A"/>
<path d="M49.6154 88.6121L59.6136 81.0571L46.9092 88.6121H49.6154Z" fill="#20419A"/>
<path d="M46.9274 88.6116L56.888 81.0566L44.1836 88.6116H46.9274Z" fill="#20419A"/>
<path d="M55.2543 80.8693L49.6162 69.4429L53.0366 82.2225L55.2543 80.8693Z" fill="#20419A"/>
<path d="M53.055 82.2412L47.2666 70.8711L50.8937 83.9138L53.055 82.2412Z" fill="#20419A"/>
<path d="M50.8919 83.9145L45.1035 72.5444L48.7307 85.324L50.8919 83.9145Z" fill="#20419A"/>
<path d="M48.7313 85.3227L42.9053 73.9526L46.3445 86.9953L48.7313 85.3227Z" fill="#20419A"/>
<path d="M46.346 86.9963L40.5576 75.5698L44.1848 88.4058L46.346 86.9963Z" fill="#20419A"/>
<path d="M73.1995 67.6395L69.0273 55.8184L72.3162 70.327L73.1995 67.6395Z" fill="#20419A"/>
<path d="M72.3174 70.3257L68.1641 58.373L71.5845 72.8816L72.3174 70.3257Z" fill="#20419A"/>
<path d="M71.5847 72.8819L67.2246 60.9292L70.7014 75.4378L71.5847 72.8819Z" fill="#20419A"/>
<path d="M70.7002 75.4378L66.3213 63.6167L69.7605 78.1253L70.7002 75.4378Z" fill="#20419A"/>
<path d="M69.762 78.125L65.5898 66.1724L69.0291 80.681L69.762 78.125Z" fill="#20419A"/>
<path d="M64.8555 67.6396L52.1699 69.5942L65.6073 70.3271L64.8555 67.6396Z" fill="#20419A"/>
<path d="M65.5882 70.3262L53.0342 72.1303L66.4715 72.8633L65.5882 70.3262Z" fill="#20419A"/>
<path d="M66.4747 72.8813L53.7891 74.8923L67.2264 75.4373L66.4747 72.8813Z" fill="#20419A"/>
<path d="M67.2239 75.4375L54.5195 77.4484L68.1448 78.125L67.2239 75.4375Z" fill="#20419A"/>
<path d="M68.1448 78.126L55.4404 79.9302L68.8778 80.6631L68.1448 78.126Z" fill="#20419A"/>
<path d="M69.3849 84.459C65.2128 89.1574 59.0485 92.4463 51.0613 92.653C30.3696 92.2583 20.9541 70.8901 29.6367 56.0432L51.0613 19.377L69.3849 50.7434L72.4671 56.0432C77.8984 65.252 76.2822 76.8852 69.3849 84.4778M83.7432 11.9348L69.5729 36.5543L69.3661 36.404L55.0643 11.8972L83.7432 11.9348ZM73.7262 43.6771L96.2409 5H51.0425L23.3033 52.7355C20.5782 57.4339 19.2815 62.4894 19.1875 67.4885V67.8831C19.2439 84.1019 32.4181 99.6442 51.0613 99.4938C58.1652 99.4938 64.3483 97.3326 69.3849 93.8558C82.4652 85.1732 87.7086 67.4321 79.0448 52.5476L73.7262 43.6771Z" fill="#20419A"/>
</svg>
