<svg width="380" height="283" viewBox="0 0 380 283" fill="none" xmlns="http://www.w3.org/2000/svg">
<path d="M263.844 193.378C265.336 188.97 266.582 184.515 267.589 180.063C267.589 180.063 267.589 180.063 267.605 180.022C267.848 178.947 268.063 177.884 268.277 176.821C270.88 166.435 282.418 134.2 325.984 127.249C348.723 123.707 368.615 108.236 376.365 85.3035C387.599 52.1117 369.251 15.8781 335.392 4.33531C310.992 -3.9716 285.178 2.81338 268.461 19.6596C268.461 19.6596 241.229 46.4194 206.023 37.2829C197.454 32.0268 188.15 27.6349 178.225 24.2444C107.461 0.13613 31.0497 36.7978 7.57903 106.117C-15.9125 175.429 22.4268 251.163 93.1986 275.251C163.963 299.359 240.374 262.697 263.844 193.378Z" fill="#13A99D"/>
</svg>
